<?xml version="1.0" encoding="UTF-8" standalone="no"?>
<!DOCTYPE svg PUBLIC "-//W3C//DTD SVG 1.1//EN" "http://www.w3.org/Graphics/SVG/1.1/DTD/svg11.dtd">
<svg width="100%" height="100%" viewBox="0 0 1024 1024" version="1.1" xmlns="http://www.w3.org/2000/svg" xmlns:xlink="http://www.w3.org/1999/xlink" xml:space="preserve" xmlns:serif="http://www.serif.com/" style="fill-rule:evenodd;clip-rule:evenodd;stroke-linejoin:round;stroke-miterlimit:2;">
    <g id="Background">
        <path d="M556.502,245.334C560.525,245.487 561.056,245.452 564.136,250.722C568.985,259.017 568.606,259.218 573.828,267.292C574.999,269.101 574.865,269.18 587.738,290.364C602.153,314.084 602.316,316.421 606.472,316.805C606.596,316.816 713.563,317.171 717.518,316.635C720.776,316.194 720.731,315.93 724.514,315.712C731.138,315.329 731.375,314.536 739.576,312.858C746.879,311.364 760.415,305.225 762.707,303.86C762.73,303.846 764.357,302.973 766.596,301.666C774.738,296.913 774.603,296.714 782.118,291.01C784.756,289.007 796.549,277.19 798.014,275.129C807.238,262.143 808.673,258.675 812.718,250.61C819.103,237.881 819.402,230.72 821.5,223.5C822.633,219.598 823.427,219.712 827.5,219.709C884.908,219.662 884.939,219.595 885.417,219.792C887.119,220.495 886.954,222.316 886.953,222.488C886.929,228.977 886.284,232.571 886.129,233.436C885.314,237.986 885.916,238.069 884.867,242.575C884.306,244.984 883.876,252.624 878.435,268.477C875.346,277.476 872.13,285.28 865.029,298.231C864.7,298.832 864.434,298.658 860.524,305.515C859.618,307.104 858.057,309.39 857.832,309.72C857.32,310.469 851.562,318.385 851.015,319.138C850.232,320.213 847.406,323.322 847.358,323.377C844.575,326.539 844.891,326.793 840.398,331.402C833.683,338.289 831.979,339.939 827.481,343.478C826.276,344.427 824.434,346.28 821.452,348.433C817.617,351.201 817.773,351.394 813.787,353.933C813.312,354.236 803.633,361.678 784.53,369.568C770.291,375.448 765.188,376.001 755.502,378.51C751.04,379.666 750.984,379.305 746.447,380.129C743.471,380.67 742.646,380.264 737.446,381.115C734.24,381.64 734.24,382.025 683.499,382.083C643.585,382.128 643.301,381.674 642.573,382.564C641.002,384.486 647.238,392.286 652.278,401.622C652.787,402.564 652.898,402.493 658.951,413.229C659.571,414.328 659.757,414.205 667.227,426.66C670.756,432.544 670.974,433.372 677.5,433.391C784.983,433.711 839.922,432.897 841.398,433.697C842.664,434.383 842.102,436.179 842.035,436.391C842.002,436.498 838.427,444.824 834.691,449.648C832.082,453.017 832.342,453.208 828.448,457.454C825.282,460.906 825.569,461.153 821.318,465.314C819.307,467.282 819.294,467.242 817.122,469.021C814.331,471.305 814.41,471.38 811.602,473.636C810.697,474.364 810.668,474.293 807.613,476.652C800.792,481.918 780.511,493.316 760.439,497.186C749.618,499.273 749.543,498.395 738.506,498.734C735.401,498.83 735.275,499.299 731.498,499.341C716.545,499.506 711.557,497.816 713.277,502.58C714.213,505.169 720.51,514.477 725.123,522.714C725.462,523.32 735.657,540.469 738.726,545.368C739.545,546.675 742.436,552.337 745.726,557.362C746.261,558.178 746.006,558.317 752.063,567.782C752.505,568.472 754.463,572.42 758.786,579.328C760.349,581.826 761.555,584.152 765.908,591.253C768.709,595.823 770.923,599.834 771.341,600.59C772.243,602.224 772.428,602.111 783.305,620.617C785.464,624.291 787.333,627.253 788.964,630.25C791.548,634.997 791.824,634.812 794.417,639.548C794.779,640.21 794.86,640.159 799.202,647.67C805.777,659.044 806.422,658.644 812.314,669.603C812.744,670.403 832.36,702.787 835.644,708.418C836.302,709.546 839.722,715.162 840.078,715.748C843.271,720.992 843.056,721.104 845.794,725.319C845.943,725.548 856.523,743.34 857.782,745.327C862.418,752.644 862.051,752.855 879.049,780.772C879.809,782.021 882.599,786.948 882.673,787.472C882.908,789.131 881.65,789.367 881.471,789.401C881.027,789.484 881.023,789.441 846.5,789.503C807.847,789.573 807.851,789.747 804.503,789.459C801.232,789.178 800.798,788.235 794.085,776.74C791.698,772.654 791.722,772.663 789.254,768.644C788.127,766.808 788.15,766.817 775.263,745.633C773.389,742.552 773.616,742.427 771.587,739.44C771.36,739.106 753.627,709.066 751.011,704.795C747.38,698.868 747.682,698.709 744.025,692.786C743.629,692.143 740.675,687.358 739.106,684.728C738.3,683.378 738.046,683.445 735.828,679.328C732.668,673.459 724.452,660.792 712.067,638.74C710.632,636.184 710.454,636.31 709.082,633.726C707.954,631.601 707.48,631.62 704.668,626.409C703.344,623.954 702.752,623.756 694.655,609.412C692.163,604.998 691.35,604.268 687.972,598.239C684.57,592.167 684.607,592.159 680.952,586.222C674.966,576.499 675.247,576.351 669.227,566.659C657.994,548.571 655.857,543.914 645.838,527.306C644.323,524.794 644.155,523.71 640.781,518.321C640.133,517.286 630.516,500.938 629.626,499.424C629.355,498.962 627.465,495.749 626.215,493.658C625.26,492.06 623.873,488.95 622.317,486.615C621.109,484.804 598.796,446.066 592.27,435.635C591.317,434.112 591.39,434.07 580.738,416.364C577.503,410.986 577.63,410.935 574.375,405.577C559.253,380.687 559.413,380.6 552.309,369.62C551.369,368.167 543.459,354.352 536.189,342.689C535.297,341.256 530.552,333.645 525.35,324.585C524.65,323.367 522.957,320.895 520.562,316.464C519.36,314.242 515.995,309.078 515.582,308.445C513.841,305.773 513.145,305.55 512.5,305.559C510.566,305.589 509.356,308.357 503.842,316.721C500.754,321.404 498.625,325.8 496.785,328.678C495.922,330.027 489.273,342.062 484.14,350.282C480.264,356.49 479.572,358.988 477.799,361.689C476.647,363.443 473.683,369.657 466.744,380.649C464.396,384.367 460.677,393.648 457.451,394.271C454.478,394.845 454.621,393.386 446.468,391.633C444.125,391.129 441.993,390.22 436.567,389.185C430.601,388.048 426.347,386.599 422.534,386.225C417.949,385.774 418.063,385.089 413.48,384.673C406.472,384.035 406.522,383.623 399.5,383.473C394.503,383.366 394.542,383.145 391.487,382.577C383.745,381.14 301.341,383.354 286.558,381.093C281.519,380.322 281.515,380.47 276.476,379.646C274.439,379.313 272.954,379.453 264.592,377.166C261.082,376.207 261.075,376.327 257.55,375.34C255.818,374.855 247.261,372.46 236.393,367.747C232.053,365.865 216.661,357.552 214.641,356.266C211.776,354.442 208.979,352.206 205.361,349.71C200.324,346.234 200.577,345.941 195.803,342.12C194.055,340.721 188.034,335.121 184.552,331.45C179.479,326.102 179.101,326.432 168.956,313.139C164.751,307.628 164.844,307.581 161.275,301.627C157.949,296.081 153.794,290.027 145.638,268.45C141.895,258.549 138.671,242.131 138.363,237.51C138.129,233.982 138.016,234.011 137.401,230.518C137.103,228.823 136.759,223.63 136.931,222.54C137.46,219.18 139.045,219.664 150.5,219.664C159.593,219.664 199.256,219.589 200.428,219.906C201.96,220.319 202.502,221.294 202.86,222.369C203.362,223.87 203.464,225.981 203.812,227.435C204.172,228.938 206.626,243.732 216.969,261.216C217.745,262.528 220.14,266.129 220.422,266.552C223.979,271.9 228.052,276.452 228.776,277.261C230.302,278.967 231.403,281.028 235.41,284.603C236.277,285.376 239.566,287.899 242.389,290.616C246.313,294.392 255.337,299.883 255.723,300.095C265.985,305.735 266.034,306.289 279.328,310.984C283.82,312.571 283.879,312.309 288.467,313.612C291.967,314.607 292.009,314.37 295.565,315.161C298.569,315.829 302.187,315.516 306.543,316.215C312.421,317.159 312.459,316.821 351.5,316.879C356.621,316.886 411.425,316.967 415.515,316.777C422.673,316.444 423.103,313.22 428.748,304.659C430.361,302.211 430.07,302.055 431.722,299.645C432.537,298.455 432.331,298.33 441.104,284.253C441.539,283.555 444.423,278.928 446.413,275.447C447.19,274.087 448.096,273.117 449.414,270.454C450.379,268.507 454.822,261.652 456.422,258.458C456.869,257.567 460.516,251.336 460.877,250.719C463.521,246.2 465.011,245.805 465.543,245.664C467.559,245.128 485.811,245.49 510.498,245.273C517.368,245.213 539.751,245.339 556.502,245.334Z" style="fill:rgb(241,72,53);"/>
        <path d="M231.5,433.406C340.072,433.406 340.061,433.437 349.499,433.366C352.679,433.343 352.754,432.425 353.995,430.921C357.65,426.492 357.142,426.163 360.287,421.368C361.98,418.785 362.688,415.88 370.445,417.756C373.413,418.474 373.466,418.147 376.428,418.845C382.937,420.379 382.954,420.284 383.517,420.431C388.921,421.835 388.956,421.67 389.422,421.802C395.676,423.574 395.845,422.896 401.674,425.01C405.256,426.309 406.493,426.36 409.569,427.28C417.154,429.55 418.707,430.23 419.471,430.565C429.786,435.082 432.194,434.827 433.015,436.629C433.573,437.855 430.562,442.911 429.368,444.394C423.53,451.648 417.769,462.435 416.888,463.754C415.529,465.789 411.017,473.879 409.833,475.709C407.592,479.173 404.942,483.769 403.75,485.651C400.81,490.296 399.168,493.636 398.091,495.224C395.965,498.36 382.551,521.332 381.7,522.624C380.047,525.132 370.823,540.912 367.401,546.44C352.701,570.185 348.963,576.779 347.441,579.465C345.833,582.301 343.693,585.863 343.361,586.416C342.937,587.123 339.872,592.225 338.113,595.283C333.719,602.924 333.45,602.756 331.434,606.461C327.897,612.959 327.711,612.836 324.133,619.298C321.66,623.764 316.601,631.481 313.313,637.397C310.961,641.63 305.414,651.071 305.239,651.327C303.636,653.672 288.749,679.605 286.684,682.622C285.807,683.903 282.385,690.318 279.199,695.308C276.438,699.631 273.64,705.42 269.786,711.668C264.9,719.589 254.084,738.063 253.742,738.635C248.468,747.451 248.533,747.471 248.06,748.227C245.555,752.229 245.708,752.304 243.228,756.337C239.095,763.061 239.013,763.007 238.658,763.593C232.687,773.449 232.807,773.506 232.248,774.336C228.919,779.289 225.322,786.169 223.202,788.154C221.773,789.492 221.529,789.336 206.5,789.392C201.62,789.41 152.898,789.589 145.506,789.365C138.914,789.166 142.6,784.575 143.813,782.7C147.968,776.275 147.663,776.108 151.805,769.689C154.398,765.67 158.005,758.612 160.28,755.356C162.779,751.779 163.822,748.842 167.432,743.454C170.593,738.736 172.661,734.495 174.076,732.233C179.671,723.291 179.627,723.285 185.087,714.254C189.99,706.143 189.811,706.043 190.263,705.354C192.556,701.866 198.957,690.872 199.746,689.654C202.298,685.716 203.616,683.305 203.926,682.738C208.146,675.02 209.982,672.919 211.359,670.424C217.098,660.031 224.144,649.079 225.534,646.52C227.737,642.464 236.009,629.453 237.152,627.314C240.507,621.037 242.453,618.477 245.856,612.707C248.817,607.687 248.879,607.729 249.127,607.288C253.17,600.112 253.329,600.221 253.676,599.596C257.303,593.063 267.144,577.831 269.795,572.653C270.283,571.699 282.581,551.044 283.024,550.244C287.019,543.029 287.227,543.166 287.553,542.529C290.118,537.526 297.985,524.768 301.651,518.589C307.742,508.322 312.133,502.58 312.184,500.483C312.188,500.333 312.215,499.236 311.369,498.8C310.081,498.136 284.606,498.881 273.508,498.353C266.396,498.015 255.524,495.208 251.393,493.837C233.786,487.996 224.985,482.1 220.211,478.94C207.585,470.584 201.981,463.8 198.572,460.428C192.938,454.855 181.663,438.247 181.764,435.489C181.791,434.756 182.629,433.803 182.641,433.795C183.5,433.305 183.586,433.406 231.5,433.406Z" style="fill:rgb(241,72,53);"/>
    </g>
</svg>
